<svg width="182" height="182" viewBox="0 0 182 182" fill="none" xmlns="http://www.w3.org/2000/svg">
<g clip-path="url(#clip0)">
<path d="M126.307 60.6668L91.4999 95.3984L56.6924 60.6668L45.9999 71.3593L91.4999 116.859L137 71.3593L126.307 60.6668Z" fill="#FF6B00"/>
<path d="M15.952 20.12C16.536 20.12 17.06 20.024 17.524 19.832C17.988 19.632 18.38 19.352 18.7 18.992C19.02 18.632 19.264 18.196 19.432 17.684C19.6 17.172 19.684 16.596 19.684 15.956V5.588H23.284V15.956C23.284 17.012 23.112 17.984 22.768 18.872C22.432 19.752 21.948 20.512 21.316 21.152C20.684 21.792 19.916 22.292 19.012 22.652C18.108 23.012 17.088 23.192 15.952 23.192C14.816 23.192 13.792 23.012 12.88 22.652C11.976 22.292 11.208 21.792 10.576 21.152C9.944 20.512 9.456 19.752 9.112 18.872C8.776 17.984 8.608 17.012 8.608 15.956V5.588H12.208V15.956C12.208 16.596 12.292 17.172 12.46 17.684C12.628 18.196 12.872 18.632 13.192 18.992C13.512 19.352 13.904 19.632 14.368 19.832C14.832 20.024 15.36 20.12 15.952 20.12ZM25.8524 23V10.628H27.8924C28.3084 10.628 28.5844 10.82 28.7204 11.204L28.9124 12.008C29.1284 11.784 29.3484 11.576 29.5724 11.384C29.8044 11.192 30.0524 11.028 30.3164 10.892C30.5804 10.748 30.8644 10.636 31.1684 10.556C31.4804 10.476 31.8164 10.436 32.1764 10.436C32.9364 10.436 33.5644 10.64 34.0604 11.048C34.5564 11.448 34.9324 11.984 35.1884 12.656C35.3884 12.264 35.6324 11.928 35.9204 11.648C36.2164 11.36 36.5364 11.128 36.8804 10.952C37.2324 10.776 37.6004 10.648 37.9844 10.568C38.3764 10.48 38.7684 10.436 39.1604 10.436C39.8564 10.436 40.4724 10.54 41.0084 10.748C41.5444 10.956 41.9924 11.264 42.3524 11.672C42.7204 12.072 43.0004 12.564 43.1924 13.148C43.3844 13.732 43.4804 14.396 43.4804 15.14V23H40.1684V15.14C40.1684 13.692 39.5484 12.968 38.3084 12.968C38.0284 12.968 37.7684 13.016 37.5284 13.112C37.2964 13.2 37.0884 13.336 36.9044 13.52C36.7284 13.704 36.5884 13.932 36.4844 14.204C36.3884 14.476 36.3404 14.788 36.3404 15.14V23H33.0284V15.14C33.0284 14.356 32.8724 13.8 32.5604 13.472C32.2564 13.136 31.8044 12.968 31.2044 12.968C30.8204 12.968 30.4564 13.06 30.1124 13.244C29.7764 13.42 29.4604 13.668 29.1644 13.988V23H25.8524ZM46.1024 23V10.628H48.1424C48.5584 10.628 48.8344 10.82 48.9704 11.204L49.1624 12.008C49.3784 11.784 49.5984 11.576 49.8224 11.384C50.0544 11.192 50.3024 11.028 50.5664 10.892C50.8304 10.748 51.1144 10.636 51.4184 10.556C51.7304 10.476 52.0664 10.436 52.4264 10.436C53.1864 10.436 53.8144 10.64 54.3104 11.048C54.8064 11.448 55.1824 11.984 55.4384 12.656C55.6384 12.264 55.8824 11.928 56.1704 11.648C56.4664 11.36 56.7864 11.128 57.1304 10.952C57.4824 10.776 57.8504 10.648 58.2344 10.568C58.6264 10.48 59.0184 10.436 59.4104 10.436C60.1064 10.436 60.7224 10.54 61.2584 10.748C61.7944 10.956 62.2424 11.264 62.6024 11.672C62.9704 12.072 63.2504 12.564 63.4424 13.148C63.6344 13.732 63.7304 14.396 63.7304 15.14V23H60.4184V15.14C60.4184 13.692 59.7984 12.968 58.5584 12.968C58.2784 12.968 58.0184 13.016 57.7784 13.112C57.5464 13.2 57.3384 13.336 57.1544 13.52C56.9784 13.704 56.8384 13.932 56.7344 14.204C56.6384 14.476 56.5904 14.788 56.5904 15.14V23H53.2784V15.14C53.2784 14.356 53.1224 13.8 52.8104 13.472C52.5064 13.136 52.0544 12.968 51.4544 12.968C51.0704 12.968 50.7064 13.06 50.3624 13.244C50.0264 13.42 49.7104 13.668 49.4144 13.988V23H46.1024ZM66.3404 25.952C66.2524 25.88 66.1884 25.808 66.1484 25.736C66.1164 25.664 66.1004 25.576 66.1004 25.472C66.1004 25.4 66.1244 25.32 66.1724 25.232C66.2284 25.152 66.2924 25.076 66.3644 25.004C66.4524 24.908 66.5604 24.788 66.6884 24.644C66.8164 24.508 66.9444 24.352 67.0724 24.176C67.2004 24.008 67.3164 23.82 67.4204 23.612C67.5324 23.404 67.6164 23.184 67.6724 22.952C67.4084 22.944 67.1684 22.888 66.9524 22.784C66.7364 22.68 66.5524 22.544 66.4004 22.376C66.2484 22.208 66.1284 22.012 66.0404 21.788C65.9604 21.556 65.9204 21.308 65.9204 21.044C65.9204 20.804 65.9644 20.58 66.0524 20.372C66.1404 20.164 66.2644 19.984 66.4244 19.832C66.5924 19.68 66.7884 19.56 67.0124 19.472C67.2444 19.384 67.5004 19.34 67.7804 19.34C68.1084 19.34 68.3924 19.4 68.6324 19.52C68.8804 19.632 69.0844 19.784 69.2444 19.976C69.4044 20.168 69.5244 20.396 69.6044 20.66C69.6844 20.916 69.7244 21.188 69.7244 21.476C69.7244 21.868 69.6644 22.284 69.5444 22.724C69.4244 23.156 69.2444 23.592 69.0044 24.032C68.7644 24.472 68.4684 24.9 68.1164 25.316C67.7724 25.74 67.3724 26.124 66.9164 26.468L66.3404 25.952ZM82.3276 16.352C83.0076 16.352 83.5076 16.18 83.8276 15.836C84.1556 15.492 84.3196 15.048 84.3196 14.504C84.3196 13.936 84.1556 13.492 83.8276 13.172C83.5076 12.844 83.0076 12.68 82.3276 12.68C81.6476 12.68 81.1476 12.844 80.8276 13.172C80.5076 13.492 80.3476 13.936 80.3476 14.504C80.3476 15.04 80.5076 15.484 80.8276 15.836C81.1556 16.18 81.6556 16.352 82.3276 16.352ZM85.4596 23.504C85.4596 23.288 85.3916 23.112 85.2556 22.976C85.1196 22.84 84.9356 22.732 84.7036 22.652C84.4796 22.572 84.2116 22.516 83.8996 22.484C83.5876 22.444 83.2556 22.416 82.9036 22.4C82.5516 22.376 82.1876 22.356 81.8116 22.34C81.4356 22.324 81.0676 22.296 80.7076 22.256C80.4276 22.424 80.1956 22.624 80.0116 22.856C79.8356 23.08 79.7476 23.336 79.7476 23.624C79.7476 23.824 79.7916 24.008 79.8796 24.176C79.9756 24.344 80.1316 24.488 80.3476 24.608C80.5636 24.728 80.8476 24.82 81.1996 24.884C81.5516 24.956 81.9916 24.992 82.5196 24.992C83.0636 24.992 83.5236 24.956 83.8996 24.884C84.2756 24.812 84.5796 24.708 84.8116 24.572C85.0436 24.444 85.2076 24.288 85.3036 24.104C85.4076 23.92 85.4596 23.72 85.4596 23.504ZM88.7476 11.036V12.248C88.7476 12.44 88.6916 12.592 88.5796 12.704C88.4756 12.816 88.2996 12.9 88.0516 12.956L87.0436 13.16C87.1796 13.552 87.2476 13.972 87.2476 14.42C87.2476 15.036 87.1196 15.592 86.8636 16.088C86.6156 16.576 86.2716 16.996 85.8316 17.348C85.3916 17.692 84.8716 17.96 84.2716 18.152C83.6716 18.336 83.0236 18.428 82.3276 18.428C81.8876 18.428 81.4756 18.392 81.0916 18.32C80.7556 18.528 80.5876 18.756 80.5876 19.004C80.5876 19.236 80.6996 19.404 80.9236 19.508C81.1556 19.612 81.4556 19.688 81.8236 19.736C82.1996 19.776 82.6236 19.804 83.0956 19.82C83.5756 19.828 84.0596 19.852 84.5476 19.892C85.0436 19.932 85.5276 20.004 85.9996 20.108C86.4796 20.204 86.9036 20.368 87.2716 20.6C87.6476 20.824 87.9476 21.124 88.1716 21.5C88.4036 21.876 88.5196 22.36 88.5196 22.952C88.5196 23.504 88.3836 24.04 88.1116 24.56C87.8396 25.08 87.4436 25.544 86.9236 25.952C86.4116 26.36 85.7796 26.688 85.0276 26.936C84.2756 27.184 83.4196 27.308 82.4596 27.308C81.5076 27.308 80.6796 27.216 79.9756 27.032C79.2796 26.856 78.6996 26.616 78.2356 26.312C77.7796 26.016 77.4396 25.672 77.2156 25.28C76.9916 24.888 76.8796 24.48 76.8796 24.056C76.8796 23.504 77.0476 23.036 77.3836 22.652C77.7196 22.268 78.1836 21.96 78.7756 21.728C78.4636 21.552 78.2116 21.324 78.0196 21.044C77.8356 20.756 77.7436 20.384 77.7436 19.928C77.7436 19.56 77.8756 19.172 78.1396 18.764C78.4116 18.356 78.8276 18.016 79.3876 17.744C78.7556 17.408 78.2556 16.96 77.8876 16.4C77.5196 15.832 77.3356 15.172 77.3356 14.42C77.3356 13.804 77.4596 13.248 77.7076 12.752C77.9636 12.256 78.3156 11.836 78.7636 11.492C79.2116 11.14 79.7396 10.872 80.3476 10.688C80.9556 10.504 81.6156 10.412 82.3276 10.412C83.3836 10.412 84.3156 10.62 85.1236 11.036H88.7476ZM95.8152 10.436C96.7432 10.436 97.5872 10.584 98.3472 10.88C99.1072 11.176 99.7592 11.6 100.303 12.152C100.847 12.696 101.267 13.36 101.563 14.144C101.859 14.928 102.007 15.812 102.007 16.796C102.007 17.78 101.859 18.668 101.563 19.46C101.267 20.244 100.847 20.912 100.303 21.464C99.7592 22.016 99.1072 22.44 98.3472 22.736C97.5872 23.032 96.7432 23.18 95.8152 23.18C94.8792 23.18 94.0272 23.032 93.2592 22.736C92.4992 22.44 91.8472 22.016 91.3032 21.464C90.7592 20.912 90.3352 20.244 90.0312 19.46C89.7352 18.668 89.5872 17.78 89.5872 16.796C89.5872 15.812 89.7352 14.928 90.0312 14.144C90.3352 13.36 90.7592 12.696 91.3032 12.152C91.8472 11.6 92.4992 11.176 93.2592 10.88C94.0272 10.584 94.8792 10.436 95.8152 10.436ZM95.8152 20.696C96.7592 20.696 97.4592 20.372 97.9152 19.724C98.3712 19.068 98.5992 18.096 98.5992 16.808C98.5992 15.528 98.3712 14.564 97.9152 13.916C97.4592 13.26 96.7592 12.932 95.8152 12.932C94.8472 12.932 94.1352 13.26 93.6792 13.916C93.2232 14.564 92.9952 15.528 92.9952 16.808C92.9952 18.096 93.2232 19.068 93.6792 19.724C94.1352 20.372 94.8472 20.696 95.8152 20.696ZM117.426 13.844C117.114 13.484 116.774 13.232 116.406 13.088C116.046 12.944 115.662 12.872 115.254 12.872C114.854 12.872 114.49 12.948 114.162 13.1C113.834 13.252 113.55 13.492 113.31 13.82C113.078 14.14 112.898 14.552 112.77 15.056C112.642 15.56 112.578 16.16 112.578 16.856C112.578 17.544 112.63 18.128 112.734 18.608C112.838 19.088 112.986 19.476 113.178 19.772C113.378 20.068 113.618 20.284 113.898 20.42C114.178 20.548 114.49 20.612 114.834 20.612C115.418 20.612 115.906 20.496 116.298 20.264C116.698 20.032 117.074 19.704 117.426 19.28V13.844ZM120.738 5.108V23H118.698C118.274 23 118.002 22.808 117.882 22.424L117.606 21.344C117.358 21.616 117.094 21.864 116.814 22.088C116.542 22.312 116.246 22.508 115.926 22.676C115.606 22.836 115.262 22.96 114.894 23.048C114.526 23.136 114.126 23.18 113.694 23.18C113.03 23.18 112.422 23.04 111.87 22.76C111.318 22.48 110.838 22.072 110.43 21.536C110.03 20.992 109.718 20.328 109.494 19.544C109.27 18.76 109.158 17.864 109.158 16.856C109.158 15.936 109.282 15.08 109.53 14.288C109.786 13.496 110.146 12.812 110.61 12.236C111.074 11.66 111.634 11.208 112.29 10.88C112.946 10.552 113.674 10.388 114.474 10.388C115.146 10.388 115.71 10.488 116.166 10.688C116.63 10.888 117.05 11.16 117.426 11.504V5.108H120.738ZM129.073 10.436C130.001 10.436 130.845 10.584 131.605 10.88C132.365 11.176 133.017 11.6 133.561 12.152C134.105 12.696 134.525 13.36 134.821 14.144C135.117 14.928 135.265 15.812 135.265 16.796C135.265 17.78 135.117 18.668 134.821 19.46C134.525 20.244 134.105 20.912 133.561 21.464C133.017 22.016 132.365 22.44 131.605 22.736C130.845 23.032 130.001 23.18 129.073 23.18C128.137 23.18 127.285 23.032 126.517 22.736C125.757 22.44 125.105 22.016 124.561 21.464C124.017 20.912 123.593 20.244 123.289 19.46C122.993 18.668 122.845 17.78 122.845 16.796C122.845 15.812 122.993 14.928 123.289 14.144C123.593 13.36 124.017 12.696 124.561 12.152C125.105 11.6 125.757 11.176 126.517 10.88C127.285 10.584 128.137 10.436 129.073 10.436ZM129.073 20.696C130.017 20.696 130.717 20.372 131.173 19.724C131.629 19.068 131.857 18.096 131.857 16.808C131.857 15.528 131.629 14.564 131.173 13.916C130.717 13.26 130.017 12.932 129.073 12.932C128.105 12.932 127.393 13.26 126.937 13.916C126.481 14.564 126.253 15.528 126.253 16.808C126.253 18.096 126.481 19.068 126.937 19.724C127.393 20.372 128.105 20.696 129.073 20.696ZM155.05 10.628L151.162 23H148.486C148.35 23 148.226 22.956 148.114 22.868C148.01 22.78 147.93 22.632 147.874 22.424L145.858 15.728C145.778 15.472 145.706 15.22 145.642 14.972C145.586 14.716 145.534 14.46 145.486 14.204C145.43 14.46 145.37 14.72 145.306 14.984C145.25 15.24 145.182 15.496 145.102 15.752L143.062 22.424C142.95 22.808 142.71 23 142.342 23H139.798L135.91 10.628H138.55C138.79 10.628 138.99 10.684 139.15 10.796C139.318 10.908 139.43 11.052 139.486 11.228L141.01 17.348C141.106 17.74 141.19 18.12 141.262 18.488C141.334 18.856 141.402 19.22 141.466 19.58C141.562 19.22 141.662 18.856 141.766 18.488C141.878 18.12 141.994 17.74 142.114 17.348L143.926 11.204C143.982 11.036 144.09 10.896 144.25 10.784C144.41 10.672 144.598 10.616 144.814 10.616H146.278C146.51 10.616 146.706 10.672 146.866 10.784C147.034 10.896 147.146 11.036 147.202 11.204L148.954 17.348C149.066 17.732 149.174 18.112 149.278 18.488C149.382 18.856 149.478 19.228 149.566 19.604C149.63 19.236 149.698 18.868 149.77 18.5C149.85 18.124 149.942 17.74 150.046 17.348L151.642 11.228C151.698 11.052 151.806 10.908 151.966 10.796C152.126 10.684 152.314 10.628 152.53 10.628H155.05ZM159.635 12.068C159.883 11.828 160.139 11.608 160.403 11.408C160.675 11.208 160.959 11.036 161.255 10.892C161.559 10.748 161.883 10.636 162.227 10.556C162.579 10.476 162.959 10.436 163.367 10.436C164.039 10.436 164.635 10.552 165.155 10.784C165.675 11.016 166.111 11.34 166.463 11.756C166.823 12.172 167.091 12.668 167.267 13.244C167.451 13.82 167.543 14.452 167.543 15.14V23H164.243V15.14C164.243 14.452 164.083 13.92 163.763 13.544C163.443 13.16 162.971 12.968 162.347 12.968C161.883 12.968 161.447 13.068 161.039 13.268C160.631 13.468 160.243 13.748 159.875 14.108V23H156.563V10.628H158.603C159.019 10.628 159.295 10.82 159.431 11.204L159.635 12.068ZM173.805 5.588V12.452C173.805 13.18 173.765 13.9 173.685 14.612C173.613 15.324 173.509 16.064 173.373 16.832H171.141C171.005 16.064 170.897 15.324 170.817 14.612C170.745 13.9 170.709 13.18 170.709 12.452V5.588H173.805ZM170.265 21.26C170.265 20.996 170.313 20.748 170.409 20.516C170.513 20.276 170.653 20.072 170.829 19.904C171.005 19.728 171.209 19.592 171.441 19.496C171.681 19.392 171.941 19.34 172.221 19.34C172.493 19.34 172.745 19.392 172.977 19.496C173.217 19.592 173.425 19.728 173.601 19.904C173.777 20.072 173.917 20.276 174.021 20.516C174.125 20.748 174.177 20.996 174.177 21.26C174.177 21.532 174.125 21.784 174.021 22.016C173.917 22.248 173.777 22.452 173.601 22.628C173.425 22.796 173.217 22.928 172.977 23.024C172.745 23.12 172.493 23.168 172.221 23.168C171.941 23.168 171.681 23.12 171.441 23.024C171.209 22.928 171.005 22.796 170.829 22.628C170.653 22.452 170.513 22.248 170.409 22.016C170.313 21.784 170.265 21.532 170.265 21.26Z" fill="white" fill-opacity="0.5"/>
</g>
<defs>
<clipPath id="clip0">
<rect width="182" height="182" fill="white"/>
</clipPath>
</defs>
</svg>
