<svg width="182" height="182" viewBox="0 0 182 182" fill="none" xmlns="http://www.w3.org/2000/svg">
<g clip-path="url(#clip0)">
<path d="M52.696 16.304V23H49.096V16.304L42.772 5.588H45.94C46.252 5.588 46.5 5.664 46.684 5.816C46.876 5.96 47.028 6.148 47.14 6.38L49.996 11.864C50.188 12.232 50.36 12.576 50.512 12.896C50.672 13.216 50.812 13.536 50.932 13.856C51.044 13.536 51.172 13.216 51.316 12.896C51.468 12.568 51.636 12.224 51.82 11.864L54.652 6.38C54.748 6.188 54.892 6.008 55.084 5.84C55.276 5.672 55.524 5.588 55.828 5.588H59.02L52.696 16.304ZM63.0027 10.436C63.9307 10.436 64.7747 10.584 65.5347 10.88C66.2947 11.176 66.9467 11.6 67.4907 12.152C68.0347 12.696 68.4547 13.36 68.7507 14.144C69.0467 14.928 69.1947 15.812 69.1947 16.796C69.1947 17.78 69.0467 18.668 68.7507 19.46C68.4547 20.244 68.0347 20.912 67.4907 21.464C66.9467 22.016 66.2947 22.44 65.5347 22.736C64.7747 23.032 63.9307 23.18 63.0027 23.18C62.0667 23.18 61.2147 23.032 60.4467 22.736C59.6867 22.44 59.0347 22.016 58.4907 21.464C57.9467 20.912 57.5227 20.244 57.2187 19.46C56.9227 18.668 56.7747 17.78 56.7747 16.796C56.7747 15.812 56.9227 14.928 57.2187 14.144C57.5227 13.36 57.9467 12.696 58.4907 12.152C59.0347 11.6 59.6867 11.176 60.4467 10.88C61.2147 10.584 62.0667 10.436 63.0027 10.436ZM63.0027 20.696C63.9467 20.696 64.6467 20.372 65.1027 19.724C65.5587 19.068 65.7867 18.096 65.7867 16.808C65.7867 15.528 65.5587 14.564 65.1027 13.916C64.6467 13.26 63.9467 12.932 63.0027 12.932C62.0347 12.932 61.3227 13.26 60.8667 13.916C60.4107 14.564 60.1827 15.528 60.1827 16.808C60.1827 18.096 60.4107 19.068 60.8667 19.724C61.3227 20.372 62.0347 20.696 63.0027 20.696ZM82.1343 10.628V23H80.0943C79.6703 23 79.3983 22.808 79.2783 22.424L79.0623 21.56C78.8143 21.8 78.5583 22.02 78.2943 22.22C78.0303 22.42 77.7463 22.592 77.4423 22.736C77.1463 22.88 76.8223 22.992 76.4703 23.072C76.1263 23.152 75.7503 23.192 75.3423 23.192C74.6703 23.192 74.0703 23.076 73.5423 22.844C73.0223 22.612 72.5863 22.288 72.2343 21.872C71.8823 21.456 71.6143 20.96 71.4303 20.384C71.2463 19.808 71.1543 19.176 71.1543 18.488V10.628H74.4663V18.488C74.4663 19.176 74.6223 19.712 74.9343 20.096C75.2543 20.472 75.7263 20.66 76.3503 20.66C76.8143 20.66 77.2503 20.56 77.6583 20.36C78.0663 20.152 78.4543 19.872 78.8223 19.52V10.628H82.1343ZM93.8993 5.108V23H90.5873V5.108H93.8993ZM102.237 10.436C103.165 10.436 104.009 10.584 104.769 10.88C105.529 11.176 106.181 11.6 106.725 12.152C107.269 12.696 107.689 13.36 107.985 14.144C108.281 14.928 108.429 15.812 108.429 16.796C108.429 17.78 108.281 18.668 107.985 19.46C107.689 20.244 107.269 20.912 106.725 21.464C106.181 22.016 105.529 22.44 104.769 22.736C104.009 23.032 103.165 23.18 102.237 23.18C101.301 23.18 100.449 23.032 99.6811 22.736C98.9211 22.44 98.2691 22.016 97.7251 21.464C97.1811 20.912 96.7571 20.244 96.4531 19.46C96.1571 18.668 96.0091 17.78 96.0091 16.796C96.0091 15.812 96.1571 14.928 96.4531 14.144C96.7571 13.36 97.1811 12.696 97.7251 12.152C98.2691 11.6 98.9211 11.176 99.6811 10.88C100.449 10.584 101.301 10.436 102.237 10.436ZM102.237 20.696C103.181 20.696 103.881 20.372 104.337 19.724C104.793 19.068 105.021 18.096 105.021 16.808C105.021 15.528 104.793 14.564 104.337 13.916C103.881 13.26 103.181 12.932 102.237 12.932C101.269 12.932 100.557 13.26 100.101 13.916C99.6451 14.564 99.4171 15.528 99.4171 16.808C99.4171 18.096 99.6451 19.068 100.101 19.724C100.557 20.372 101.269 20.696 102.237 20.696ZM118.201 13.172C118.113 13.308 118.021 13.408 117.925 13.472C117.837 13.528 117.713 13.556 117.553 13.556C117.393 13.556 117.229 13.516 117.061 13.436C116.893 13.356 116.705 13.272 116.497 13.184C116.289 13.088 116.049 13 115.777 12.92C115.513 12.84 115.205 12.8 114.853 12.8C114.317 12.8 113.901 12.912 113.605 13.136C113.309 13.352 113.161 13.64 113.161 14C113.161 14.248 113.245 14.456 113.413 14.624C113.581 14.792 113.801 14.94 114.073 15.068C114.353 15.188 114.669 15.304 115.021 15.416C115.373 15.52 115.733 15.636 116.101 15.764C116.477 15.892 116.841 16.04 117.193 16.208C117.545 16.376 117.857 16.588 118.129 16.844C118.409 17.092 118.633 17.396 118.801 17.756C118.969 18.108 119.053 18.536 119.053 19.04C119.053 19.64 118.941 20.196 118.717 20.708C118.501 21.212 118.181 21.648 117.757 22.016C117.333 22.384 116.805 22.672 116.173 22.88C115.541 23.088 114.813 23.192 113.989 23.192C113.565 23.192 113.145 23.152 112.729 23.072C112.313 23 111.917 22.896 111.541 22.76C111.165 22.616 110.813 22.452 110.485 22.268C110.157 22.084 109.873 21.884 109.633 21.668L110.401 20.432C110.489 20.288 110.597 20.176 110.725 20.096C110.861 20.016 111.033 19.976 111.241 19.976C111.441 19.976 111.625 20.028 111.793 20.132C111.961 20.228 112.149 20.336 112.357 20.456C112.565 20.568 112.809 20.676 113.089 20.78C113.377 20.876 113.733 20.924 114.157 20.924C114.477 20.924 114.753 20.888 114.985 20.816C115.217 20.744 115.405 20.648 115.549 20.528C115.693 20.4 115.797 20.26 115.861 20.108C115.933 19.948 115.969 19.784 115.969 19.616C115.969 19.344 115.881 19.124 115.705 18.956C115.537 18.78 115.313 18.628 115.033 18.5C114.761 18.372 114.445 18.256 114.085 18.152C113.725 18.048 113.357 17.932 112.981 17.804C112.613 17.676 112.249 17.524 111.889 17.348C111.537 17.172 111.221 16.952 110.941 16.688C110.669 16.416 110.445 16.084 110.269 15.692C110.101 15.3 110.017 14.824 110.017 14.264C110.017 13.752 110.117 13.268 110.317 12.812C110.517 12.348 110.817 11.94 111.217 11.588C111.617 11.236 112.113 10.956 112.705 10.748C113.305 10.54 113.997 10.436 114.781 10.436C115.661 10.436 116.461 10.58 117.181 10.868C117.901 11.156 118.493 11.532 118.957 11.996L118.201 13.172ZM128.974 15.356C128.974 15.012 128.926 14.684 128.83 14.372C128.742 14.06 128.598 13.784 128.398 13.544C128.198 13.304 127.946 13.116 127.642 12.98C127.338 12.836 126.974 12.764 126.55 12.764C125.758 12.764 125.138 12.988 124.69 13.436C124.242 13.884 123.95 14.524 123.814 15.356H128.974ZM123.766 17.324C123.87 18.484 124.198 19.332 124.75 19.868C125.31 20.404 126.038 20.672 126.934 20.672C127.39 20.672 127.782 20.62 128.11 20.516C128.446 20.404 128.738 20.284 128.986 20.156C129.242 20.02 129.47 19.9 129.67 19.796C129.878 19.684 130.082 19.628 130.282 19.628C130.538 19.628 130.738 19.724 130.882 19.916L131.842 21.116C131.49 21.524 131.102 21.864 130.678 22.136C130.254 22.4 129.814 22.612 129.358 22.772C128.902 22.924 128.442 23.028 127.978 23.084C127.514 23.148 127.066 23.18 126.634 23.18C125.77 23.18 124.962 23.04 124.21 22.76C123.466 22.472 122.814 22.052 122.254 21.5C121.702 20.94 121.266 20.248 120.946 19.424C120.626 18.6 120.466 17.644 120.466 16.556C120.466 15.716 120.602 14.924 120.874 14.18C121.154 13.436 121.554 12.788 122.074 12.236C122.594 11.684 123.226 11.248 123.97 10.928C124.714 10.6 125.554 10.436 126.49 10.436C127.282 10.436 128.01 10.564 128.674 10.82C129.346 11.068 129.922 11.432 130.402 11.912C130.89 12.392 131.266 12.984 131.53 13.688C131.802 14.384 131.938 15.18 131.938 16.076C131.938 16.324 131.926 16.528 131.902 16.688C131.878 16.848 131.838 16.976 131.782 17.072C131.726 17.168 131.65 17.236 131.554 17.276C131.458 17.308 131.334 17.324 131.182 17.324H123.766ZM137.617 5.588V12.452C137.617 13.18 137.577 13.9 137.497 14.612C137.425 15.324 137.321 16.064 137.185 16.832H134.953C134.817 16.064 134.709 15.324 134.629 14.612C134.557 13.9 134.521 13.18 134.521 12.452V5.588H137.617ZM134.077 21.26C134.077 20.996 134.125 20.748 134.221 20.516C134.325 20.276 134.465 20.072 134.641 19.904C134.817 19.728 135.021 19.592 135.253 19.496C135.493 19.392 135.753 19.34 136.033 19.34C136.305 19.34 136.557 19.392 136.789 19.496C137.029 19.592 137.237 19.728 137.413 19.904C137.589 20.072 137.729 20.276 137.833 20.516C137.937 20.748 137.989 20.996 137.989 21.26C137.989 21.532 137.937 21.784 137.833 22.016C137.729 22.248 137.589 22.452 137.413 22.628C137.237 22.796 137.029 22.928 136.789 23.024C136.557 23.12 136.305 23.168 136.033 23.168C135.753 23.168 135.493 23.12 135.253 23.024C135.021 22.928 134.817 22.796 134.641 22.628C134.465 22.452 134.325 22.248 134.221 22.016C134.125 21.784 134.077 21.532 134.077 21.26Z" fill="white" fill-opacity="0.5"/>
<path d="M90.4999 145C117.838 145 140 122.838 140 95.4999C140 68.1619 117.838 46 90.4999 46C63.1619 46 41 68.1619 41 95.4999C41 122.838 63.1619 145 90.4999 145Z" fill="#FFC10E"/>
<path d="M115.505 119.968C101.671 105.843 79.1048 105.902 65.3513 120.115C63.5989 121.925 66.3596 124.692 68.1143 122.878C80.4116 110.171 100.364 110.093 112.742 122.731C114.507 124.534 117.269 121.769 115.505 119.968Z" fill="#333333"/>
<path d="M75.4537 86.2004C79.7472 86.2004 83.2277 82.7199 83.2277 78.4264C83.2277 74.1329 79.7472 70.6523 75.4537 70.6523C71.1602 70.6523 67.6797 74.1329 67.6797 78.4264C67.6797 82.7199 71.1602 86.2004 75.4537 86.2004Z" fill="#333333"/>
<path d="M104.85 86.2004C109.144 86.2004 112.624 82.7199 112.624 78.4264C112.624 74.1329 109.144 70.6523 104.85 70.6523C100.557 70.6523 97.0764 74.1329 97.0764 78.4264C97.0764 82.7199 100.557 86.2004 104.85 86.2004Z" fill="#333333"/>
</g>
<defs>
<clipPath id="clip0">
<rect width="182" height="182" fill="white"/>
</clipPath>
</defs>
</svg>
