<svg width="182" height="182" viewBox="0 0 182 182" fill="none" xmlns="http://www.w3.org/2000/svg">
<g clip-path="url(#clip0)">
<path d="M56.6925 116.859L91.5 82.1275L126.308 116.859L137 106.167L91.5 60.6667L46 106.167L56.6925 116.859Z" fill="#FFE600"/>
<path d="M31.952 20.12C32.536 20.12 33.06 20.024 33.524 19.832C33.988 19.632 34.38 19.352 34.7 18.992C35.02 18.632 35.264 18.196 35.432 17.684C35.6 17.172 35.684 16.596 35.684 15.956V5.588H39.284V15.956C39.284 17.012 39.112 17.984 38.768 18.872C38.432 19.752 37.948 20.512 37.316 21.152C36.684 21.792 35.916 22.292 35.012 22.652C34.108 23.012 33.088 23.192 31.952 23.192C30.816 23.192 29.792 23.012 28.88 22.652C27.976 22.292 27.208 21.792 26.576 21.152C25.944 20.512 25.456 19.752 25.112 18.872C24.776 17.984 24.608 17.012 24.608 15.956V5.588H28.208V15.956C28.208 16.596 28.292 17.172 28.46 17.684C28.628 18.196 28.872 18.632 29.192 18.992C29.512 19.352 29.904 19.632 30.368 19.832C30.832 20.024 31.36 20.12 31.952 20.12ZM41.8524 23V10.628H43.8924C44.3084 10.628 44.5844 10.82 44.7204 11.204L44.9124 12.008C45.1284 11.784 45.3484 11.576 45.5724 11.384C45.8044 11.192 46.0524 11.028 46.3164 10.892C46.5804 10.748 46.8644 10.636 47.1684 10.556C47.4804 10.476 47.8164 10.436 48.1764 10.436C48.9364 10.436 49.5644 10.64 50.0604 11.048C50.5564 11.448 50.9324 11.984 51.1884 12.656C51.3884 12.264 51.6324 11.928 51.9204 11.648C52.2164 11.36 52.5364 11.128 52.8804 10.952C53.2324 10.776 53.6004 10.648 53.9844 10.568C54.3764 10.48 54.7684 10.436 55.1604 10.436C55.8564 10.436 56.4724 10.54 57.0084 10.748C57.5444 10.956 57.9924 11.264 58.3524 11.672C58.7204 12.072 59.0004 12.564 59.1924 13.148C59.3844 13.732 59.4804 14.396 59.4804 15.14V23H56.1684V15.14C56.1684 13.692 55.5484 12.968 54.3084 12.968C54.0284 12.968 53.7684 13.016 53.5284 13.112C53.2964 13.2 53.0884 13.336 52.9044 13.52C52.7284 13.704 52.5884 13.932 52.4844 14.204C52.3884 14.476 52.3404 14.788 52.3404 15.14V23H49.0284V15.14C49.0284 14.356 48.8724 13.8 48.5604 13.472C48.2564 13.136 47.8044 12.968 47.2044 12.968C46.8204 12.968 46.4564 13.06 46.1124 13.244C45.7764 13.42 45.4604 13.668 45.1644 13.988V23H41.8524ZM62.1024 23V10.628H64.1424C64.5584 10.628 64.8344 10.82 64.9704 11.204L65.1624 12.008C65.3784 11.784 65.5984 11.576 65.8224 11.384C66.0544 11.192 66.3024 11.028 66.5664 10.892C66.8304 10.748 67.1144 10.636 67.4184 10.556C67.7304 10.476 68.0664 10.436 68.4264 10.436C69.1864 10.436 69.8144 10.64 70.3104 11.048C70.8064 11.448 71.1824 11.984 71.4384 12.656C71.6384 12.264 71.8824 11.928 72.1704 11.648C72.4664 11.36 72.7864 11.128 73.1304 10.952C73.4824 10.776 73.8504 10.648 74.2344 10.568C74.6264 10.48 75.0184 10.436 75.4104 10.436C76.1064 10.436 76.7224 10.54 77.2584 10.748C77.7944 10.956 78.2424 11.264 78.6024 11.672C78.9704 12.072 79.2504 12.564 79.4424 13.148C79.6344 13.732 79.7304 14.396 79.7304 15.14V23H76.4184V15.14C76.4184 13.692 75.7984 12.968 74.5584 12.968C74.2784 12.968 74.0184 13.016 73.7784 13.112C73.5464 13.2 73.3384 13.336 73.1544 13.52C72.9784 13.704 72.8384 13.932 72.7344 14.204C72.6384 14.476 72.5904 14.788 72.5904 15.14V23H69.2784V15.14C69.2784 14.356 69.1224 13.8 68.8104 13.472C68.5064 13.136 68.0544 12.968 67.4544 12.968C67.0704 12.968 66.7064 13.06 66.3624 13.244C66.0264 13.42 65.7104 13.668 65.4144 13.988V23H62.1024ZM82.3404 25.952C82.2524 25.88 82.1884 25.808 82.1484 25.736C82.1164 25.664 82.1004 25.576 82.1004 25.472C82.1004 25.4 82.1244 25.32 82.1724 25.232C82.2284 25.152 82.2924 25.076 82.3644 25.004C82.4524 24.908 82.5604 24.788 82.6884 24.644C82.8164 24.508 82.9444 24.352 83.0724 24.176C83.2004 24.008 83.3164 23.82 83.4204 23.612C83.5324 23.404 83.6164 23.184 83.6724 22.952C83.4084 22.944 83.1684 22.888 82.9524 22.784C82.7364 22.68 82.5524 22.544 82.4004 22.376C82.2484 22.208 82.1284 22.012 82.0404 21.788C81.9604 21.556 81.9204 21.308 81.9204 21.044C81.9204 20.804 81.9644 20.58 82.0524 20.372C82.1404 20.164 82.2644 19.984 82.4244 19.832C82.5924 19.68 82.7884 19.56 83.0124 19.472C83.2444 19.384 83.5004 19.34 83.7804 19.34C84.1084 19.34 84.3924 19.4 84.6324 19.52C84.8804 19.632 85.0844 19.784 85.2444 19.976C85.4044 20.168 85.5244 20.396 85.6044 20.66C85.6844 20.916 85.7244 21.188 85.7244 21.476C85.7244 21.868 85.6644 22.284 85.5444 22.724C85.4244 23.156 85.2444 23.592 85.0044 24.032C84.7644 24.472 84.4684 24.9 84.1164 25.316C83.7724 25.74 83.3724 26.124 82.9164 26.468L82.3404 25.952ZM98.3276 16.352C99.0076 16.352 99.5076 16.18 99.8276 15.836C100.156 15.492 100.32 15.048 100.32 14.504C100.32 13.936 100.156 13.492 99.8276 13.172C99.5076 12.844 99.0076 12.68 98.3276 12.68C97.6476 12.68 97.1476 12.844 96.8276 13.172C96.5076 13.492 96.3476 13.936 96.3476 14.504C96.3476 15.04 96.5076 15.484 96.8276 15.836C97.1556 16.18 97.6556 16.352 98.3276 16.352ZM101.46 23.504C101.46 23.288 101.392 23.112 101.256 22.976C101.12 22.84 100.936 22.732 100.704 22.652C100.48 22.572 100.212 22.516 99.8996 22.484C99.5876 22.444 99.2556 22.416 98.9036 22.4C98.5516 22.376 98.1876 22.356 97.8116 22.34C97.4356 22.324 97.0676 22.296 96.7076 22.256C96.4276 22.424 96.1956 22.624 96.0116 22.856C95.8356 23.08 95.7476 23.336 95.7476 23.624C95.7476 23.824 95.7916 24.008 95.8796 24.176C95.9756 24.344 96.1316 24.488 96.3476 24.608C96.5636 24.728 96.8476 24.82 97.1996 24.884C97.5516 24.956 97.9916 24.992 98.5196 24.992C99.0636 24.992 99.5236 24.956 99.8996 24.884C100.276 24.812 100.58 24.708 100.812 24.572C101.044 24.444 101.208 24.288 101.304 24.104C101.408 23.92 101.46 23.72 101.46 23.504ZM104.748 11.036V12.248C104.748 12.44 104.692 12.592 104.58 12.704C104.476 12.816 104.3 12.9 104.052 12.956L103.044 13.16C103.18 13.552 103.248 13.972 103.248 14.42C103.248 15.036 103.12 15.592 102.864 16.088C102.616 16.576 102.272 16.996 101.832 17.348C101.392 17.692 100.872 17.96 100.272 18.152C99.6716 18.336 99.0236 18.428 98.3276 18.428C97.8876 18.428 97.4756 18.392 97.0916 18.32C96.7556 18.528 96.5876 18.756 96.5876 19.004C96.5876 19.236 96.6996 19.404 96.9236 19.508C97.1556 19.612 97.4556 19.688 97.8236 19.736C98.1996 19.776 98.6236 19.804 99.0956 19.82C99.5756 19.828 100.06 19.852 100.548 19.892C101.044 19.932 101.528 20.004 102 20.108C102.48 20.204 102.904 20.368 103.272 20.6C103.648 20.824 103.948 21.124 104.172 21.5C104.404 21.876 104.52 22.36 104.52 22.952C104.52 23.504 104.384 24.04 104.112 24.56C103.84 25.08 103.444 25.544 102.924 25.952C102.412 26.36 101.78 26.688 101.028 26.936C100.276 27.184 99.4196 27.308 98.4596 27.308C97.5076 27.308 96.6796 27.216 95.9756 27.032C95.2796 26.856 94.6996 26.616 94.2356 26.312C93.7796 26.016 93.4396 25.672 93.2156 25.28C92.9916 24.888 92.8796 24.48 92.8796 24.056C92.8796 23.504 93.0476 23.036 93.3836 22.652C93.7196 22.268 94.1836 21.96 94.7756 21.728C94.4636 21.552 94.2116 21.324 94.0196 21.044C93.8356 20.756 93.7436 20.384 93.7436 19.928C93.7436 19.56 93.8756 19.172 94.1396 18.764C94.4116 18.356 94.8276 18.016 95.3876 17.744C94.7556 17.408 94.2556 16.96 93.8876 16.4C93.5196 15.832 93.3356 15.172 93.3356 14.42C93.3356 13.804 93.4596 13.248 93.7076 12.752C93.9636 12.256 94.3156 11.836 94.7636 11.492C95.2116 11.14 95.7396 10.872 96.3476 10.688C96.9556 10.504 97.6156 10.412 98.3276 10.412C99.3836 10.412 100.316 10.62 101.124 11.036H104.748ZM111.815 10.436C112.743 10.436 113.587 10.584 114.347 10.88C115.107 11.176 115.759 11.6 116.303 12.152C116.847 12.696 117.267 13.36 117.563 14.144C117.859 14.928 118.007 15.812 118.007 16.796C118.007 17.78 117.859 18.668 117.563 19.46C117.267 20.244 116.847 20.912 116.303 21.464C115.759 22.016 115.107 22.44 114.347 22.736C113.587 23.032 112.743 23.18 111.815 23.18C110.879 23.18 110.027 23.032 109.259 22.736C108.499 22.44 107.847 22.016 107.303 21.464C106.759 20.912 106.335 20.244 106.031 19.46C105.735 18.668 105.587 17.78 105.587 16.796C105.587 15.812 105.735 14.928 106.031 14.144C106.335 13.36 106.759 12.696 107.303 12.152C107.847 11.6 108.499 11.176 109.259 10.88C110.027 10.584 110.879 10.436 111.815 10.436ZM111.815 20.696C112.759 20.696 113.459 20.372 113.915 19.724C114.371 19.068 114.599 18.096 114.599 16.808C114.599 15.528 114.371 14.564 113.915 13.916C113.459 13.26 112.759 12.932 111.815 12.932C110.847 12.932 110.135 13.26 109.679 13.916C109.223 14.564 108.995 15.528 108.995 16.808C108.995 18.096 109.223 19.068 109.679 19.724C110.135 20.372 110.847 20.696 111.815 20.696ZM136.642 10.628V23H134.602C134.178 23 133.906 22.808 133.786 22.424L133.57 21.56C133.322 21.8 133.066 22.02 132.802 22.22C132.538 22.42 132.254 22.592 131.95 22.736C131.654 22.88 131.33 22.992 130.978 23.072C130.634 23.152 130.258 23.192 129.85 23.192C129.178 23.192 128.578 23.076 128.05 22.844C127.53 22.612 127.094 22.288 126.742 21.872C126.39 21.456 126.122 20.96 125.938 20.384C125.754 19.808 125.662 19.176 125.662 18.488V10.628H128.974V18.488C128.974 19.176 129.13 19.712 129.442 20.096C129.762 20.472 130.234 20.66 130.858 20.66C131.322 20.66 131.758 20.56 132.166 20.36C132.574 20.152 132.962 19.872 133.33 19.52V10.628H136.642ZM142.688 19.736C143 20.096 143.336 20.348 143.696 20.492C144.064 20.636 144.456 20.708 144.872 20.708C145.272 20.708 145.636 20.632 145.964 20.48C146.292 20.328 146.572 20.092 146.804 19.772C147.044 19.444 147.228 19.028 147.356 18.524C147.484 18.02 147.548 17.42 147.548 16.724C147.548 16.036 147.492 15.452 147.38 14.972C147.276 14.492 147.124 14.104 146.924 13.808C146.732 13.512 146.496 13.3 146.216 13.172C145.936 13.036 145.624 12.968 145.28 12.968C144.696 12.968 144.204 13.084 143.804 13.316C143.412 13.54 143.04 13.872 142.688 14.312V19.736ZM142.496 12.248C142.744 11.976 143.008 11.728 143.288 11.504C143.568 11.272 143.868 11.076 144.188 10.916C144.508 10.748 144.852 10.62 145.22 10.532C145.588 10.436 145.988 10.388 146.42 10.388C147.084 10.388 147.692 10.532 148.244 10.82C148.804 11.1 149.284 11.512 149.684 12.056C150.084 12.592 150.396 13.252 150.62 14.036C150.844 14.82 150.956 15.716 150.956 16.724C150.956 17.652 150.828 18.512 150.572 19.304C150.324 20.088 149.968 20.768 149.504 21.344C149.04 21.92 148.48 22.372 147.824 22.7C147.176 23.02 146.452 23.18 145.652 23.18C144.98 23.18 144.408 23.08 143.936 22.88C143.472 22.68 143.056 22.408 142.688 22.064V26.996H139.376V10.628H141.416C141.832 10.628 142.108 10.82 142.244 11.204L142.496 12.248ZM156.711 5.588V12.452C156.711 13.18 156.671 13.9 156.591 14.612C156.519 15.324 156.415 16.064 156.279 16.832H154.047C153.911 16.064 153.803 15.324 153.723 14.612C153.651 13.9 153.615 13.18 153.615 12.452V5.588H156.711ZM153.171 21.26C153.171 20.996 153.219 20.748 153.315 20.516C153.419 20.276 153.559 20.072 153.735 19.904C153.911 19.728 154.115 19.592 154.347 19.496C154.587 19.392 154.847 19.34 155.127 19.34C155.399 19.34 155.651 19.392 155.883 19.496C156.123 19.592 156.331 19.728 156.507 19.904C156.683 20.072 156.823 20.276 156.927 20.516C157.031 20.748 157.083 20.996 157.083 21.26C157.083 21.532 157.031 21.784 156.927 22.016C156.823 22.248 156.683 22.452 156.507 22.628C156.331 22.796 156.123 22.928 155.883 23.024C155.651 23.12 155.399 23.168 155.127 23.168C154.847 23.168 154.587 23.12 154.347 23.024C154.115 22.928 153.911 22.796 153.735 22.628C153.559 22.452 153.419 22.248 153.315 22.016C153.219 21.784 153.171 21.532 153.171 21.26Z" fill="white" fill-opacity="0.5"/>
</g>
<defs>
<clipPath id="clip0">
<rect width="182" height="182" fill="white"/>
</clipPath>
</defs>
</svg>
