<svg width="182" height="182" viewBox="0 0 182 182" fill="none" xmlns="http://www.w3.org/2000/svg">
<g clip-path="url(#clip0)">
<path d="M54.696 16.304V23H51.096V16.304L44.772 5.588H47.94C48.252 5.588 48.5 5.664 48.684 5.816C48.876 5.96 49.028 6.148 49.14 6.38L51.996 11.864C52.188 12.232 52.36 12.576 52.512 12.896C52.672 13.216 52.812 13.536 52.932 13.856C53.044 13.536 53.172 13.216 53.316 12.896C53.468 12.568 53.636 12.224 53.82 11.864L56.652 6.38C56.748 6.188 56.892 6.008 57.084 5.84C57.276 5.672 57.524 5.588 57.828 5.588H61.02L54.696 16.304ZM65.0027 10.436C65.9307 10.436 66.7747 10.584 67.5347 10.88C68.2947 11.176 68.9467 11.6 69.4907 12.152C70.0347 12.696 70.4547 13.36 70.7507 14.144C71.0467 14.928 71.1947 15.812 71.1947 16.796C71.1947 17.78 71.0467 18.668 70.7507 19.46C70.4547 20.244 70.0347 20.912 69.4907 21.464C68.9467 22.016 68.2947 22.44 67.5347 22.736C66.7747 23.032 65.9307 23.18 65.0027 23.18C64.0667 23.18 63.2147 23.032 62.4467 22.736C61.6867 22.44 61.0347 22.016 60.4907 21.464C59.9467 20.912 59.5227 20.244 59.2187 19.46C58.9227 18.668 58.7747 17.78 58.7747 16.796C58.7747 15.812 58.9227 14.928 59.2187 14.144C59.5227 13.36 59.9467 12.696 60.4907 12.152C61.0347 11.6 61.6867 11.176 62.4467 10.88C63.2147 10.584 64.0667 10.436 65.0027 10.436ZM65.0027 20.696C65.9467 20.696 66.6467 20.372 67.1027 19.724C67.5587 19.068 67.7867 18.096 67.7867 16.808C67.7867 15.528 67.5587 14.564 67.1027 13.916C66.6467 13.26 65.9467 12.932 65.0027 12.932C64.0347 12.932 63.3227 13.26 62.8667 13.916C62.4107 14.564 62.1827 15.528 62.1827 16.808C62.1827 18.096 62.4107 19.068 62.8667 19.724C63.3227 20.372 64.0347 20.696 65.0027 20.696ZM84.1343 10.628V23H82.0943C81.6703 23 81.3983 22.808 81.2783 22.424L81.0623 21.56C80.8143 21.8 80.5583 22.02 80.2943 22.22C80.0303 22.42 79.7463 22.592 79.4423 22.736C79.1463 22.88 78.8223 22.992 78.4703 23.072C78.1263 23.152 77.7503 23.192 77.3423 23.192C76.6703 23.192 76.0703 23.076 75.5423 22.844C75.0223 22.612 74.5863 22.288 74.2343 21.872C73.8823 21.456 73.6143 20.96 73.4303 20.384C73.2463 19.808 73.1543 19.176 73.1543 18.488V10.628H76.4663V18.488C76.4663 19.176 76.6223 19.712 76.9343 20.096C77.2543 20.472 77.7263 20.66 78.3503 20.66C78.8143 20.66 79.2503 20.56 79.6583 20.36C80.0663 20.152 80.4543 19.872 80.8223 19.52V10.628H84.1343ZM110.011 10.628L106.123 23H103.447C103.311 23 103.187 22.956 103.075 22.868C102.971 22.78 102.891 22.632 102.835 22.424L100.819 15.728C100.739 15.472 100.667 15.22 100.603 14.972C100.547 14.716 100.495 14.46 100.447 14.204C100.391 14.46 100.331 14.72 100.267 14.984C100.211 15.24 100.143 15.496 100.063 15.752L98.0226 22.424C97.9106 22.808 97.6706 23 97.3026 23H94.7586L90.8706 10.628H93.5106C93.7506 10.628 93.9506 10.684 94.1106 10.796C94.2786 10.908 94.3906 11.052 94.4466 11.228L95.9706 17.348C96.0666 17.74 96.1506 18.12 96.2226 18.488C96.2946 18.856 96.3626 19.22 96.4266 19.58C96.5226 19.22 96.6226 18.856 96.7266 18.488C96.8386 18.12 96.9546 17.74 97.0746 17.348L98.8866 11.204C98.9426 11.036 99.0506 10.896 99.2106 10.784C99.3706 10.672 99.5586 10.616 99.7746 10.616H101.239C101.471 10.616 101.667 10.672 101.827 10.784C101.995 10.896 102.107 11.036 102.163 11.204L103.915 17.348C104.027 17.732 104.135 18.112 104.239 18.488C104.343 18.856 104.439 19.228 104.527 19.604C104.591 19.236 104.659 18.868 104.731 18.5C104.811 18.124 104.903 17.74 105.007 17.348L106.603 11.228C106.659 11.052 106.767 10.908 106.927 10.796C107.087 10.684 107.275 10.628 107.491 10.628H110.011ZM114.932 10.628V23H111.62V10.628H114.932ZM115.328 7.112C115.328 7.392 115.272 7.652 115.16 7.892C115.048 8.132 114.896 8.344 114.704 8.528C114.52 8.712 114.3 8.856 114.044 8.96C113.796 9.064 113.528 9.116 113.24 9.116C112.968 9.116 112.708 9.064 112.46 8.96C112.22 8.856 112.008 8.712 111.824 8.528C111.64 8.344 111.492 8.132 111.38 7.892C111.276 7.652 111.224 7.392 111.224 7.112C111.224 6.832 111.276 6.572 111.38 6.332C111.492 6.084 111.64 5.868 111.824 5.684C112.008 5.5 112.22 5.356 112.46 5.252C112.708 5.148 112.968 5.096 113.24 5.096C113.528 5.096 113.796 5.148 114.044 5.252C114.3 5.356 114.52 5.5 114.704 5.684C114.896 5.868 115.048 6.084 115.16 6.332C115.272 6.572 115.328 6.832 115.328 7.112ZM120.831 12.068C121.079 11.828 121.335 11.608 121.599 11.408C121.871 11.208 122.155 11.036 122.451 10.892C122.755 10.748 123.079 10.636 123.423 10.556C123.775 10.476 124.155 10.436 124.563 10.436C125.235 10.436 125.831 10.552 126.351 10.784C126.871 11.016 127.307 11.34 127.659 11.756C128.019 12.172 128.287 12.668 128.463 13.244C128.647 13.82 128.739 14.452 128.739 15.14V23H125.439V15.14C125.439 14.452 125.279 13.92 124.959 13.544C124.639 13.16 124.167 12.968 123.543 12.968C123.079 12.968 122.643 13.068 122.235 13.268C121.827 13.468 121.439 13.748 121.071 14.108V23H117.759V10.628H119.799C120.215 10.628 120.491 10.82 120.627 11.204L120.831 12.068ZM135 5.588V12.452C135 13.18 134.96 13.9 134.88 14.612C134.808 15.324 134.704 16.064 134.568 16.832H132.336C132.2 16.064 132.092 15.324 132.012 14.612C131.94 13.9 131.904 13.18 131.904 12.452V5.588H135ZM131.46 21.26C131.46 20.996 131.508 20.748 131.604 20.516C131.708 20.276 131.848 20.072 132.024 19.904C132.2 19.728 132.404 19.592 132.636 19.496C132.876 19.392 133.136 19.34 133.416 19.34C133.688 19.34 133.94 19.392 134.172 19.496C134.412 19.592 134.62 19.728 134.796 19.904C134.972 20.072 135.112 20.276 135.216 20.516C135.32 20.748 135.372 20.996 135.372 21.26C135.372 21.532 135.32 21.784 135.216 22.016C135.112 22.248 134.972 22.452 134.796 22.628C134.62 22.796 134.412 22.928 134.172 23.024C133.94 23.12 133.688 23.168 133.416 23.168C133.136 23.168 132.876 23.12 132.636 23.024C132.404 22.928 132.2 22.796 132.024 22.628C131.848 22.452 131.708 22.248 131.604 22.016C131.508 21.784 131.46 21.532 131.46 21.26Z" fill="white" fill-opacity="0.5"/>
<g clip-path="url(#clip1)">
<path d="M90.5001 145C117.838 145 140 122.838 140 95.5001C140 68.162 117.838 46 90.5001 46C63.162 46 41 68.162 41 95.5001C41 122.838 63.162 145 90.5001 145Z" fill="#FFC10E"/>
<path d="M58.002 95.5338C58.002 113.48 72.551 128.029 90.4971 128.029C108.444 128.029 122.994 113.48 122.994 95.5338H58.002Z" fill="#333333"/>
<path d="M72.428 108.397C72.428 118.376 80.5185 126.466 90.4966 126.466C100.476 126.466 108.566 118.375 108.566 108.397H72.428Z" fill="#CA2027"/>
<path d="M75.454 86.2004C79.7475 86.2004 83.2281 82.7198 83.2281 78.4263C83.2281 74.1328 79.7475 70.6522 75.454 70.6522C71.1605 70.6522 67.6799 74.1328 67.6799 78.4263C67.6799 82.7198 71.1605 86.2004 75.454 86.2004Z" fill="#333333"/>
<path d="M104.851 86.2004C109.144 86.2004 112.625 82.7198 112.625 78.4263C112.625 74.1328 109.144 70.6522 104.851 70.6522C100.557 70.6522 97.0764 74.1328 97.0764 78.4263C97.0764 82.7198 100.557 86.2004 104.851 86.2004Z" fill="#333333"/>
</g>
</g>
<defs>
<clipPath id="clip0">
<rect width="182" height="182" fill="white"/>
</clipPath>
<clipPath id="clip1">
<rect width="99" height="99" fill="white" transform="translate(41 46)"/>
</clipPath>
</defs>
</svg>
